<?xml version="1.0" encoding="UTF-8"?>
<svg id="Layer_1" data-name="Layer 1" xmlns="http://www.w3.org/2000/svg" xmlns:xlink="http://www.w3.org/1999/xlink" viewBox="0 0 1845.24 457.66">
  <defs>
    <style>
      .cls-1 {
        fill: url(#linear-gradient);
      }
    </style>
    <linearGradient id="linear-gradient" x1="180.25" y1="661.63" x2="1658.13" y2="-191.62" gradientUnits="userSpaceOnUse">
      <stop offset="0" stop-color="#6dcaee"/>
      <stop offset="1" stop-color="#00aeef"/>
    </linearGradient>
  </defs>
  <path class="cls-1" d="M297.47,298.3c-6.67-98.31-51.63-194.69-130.02-278.71L149.17,0l-18.28,19.59C52.5,103.61,7.54,199.99.87,298.3c-.68,9.96-.95,20.02-.85,30.09-.04,1.91,0,3.81.1,5.72.14,5.62.38,11.23.76,16.82l49.89-3.36c-.29-4.28-.49-8.58-.61-12.87l.27-.05c-.17-.93-.27-1.86-.34-2.77-.02-.96-.04-1.92-.05-2.88.04-1.26.16-2.52.39-3.8,4.3-23.64,40.11-50.98,98.76-75.65,58.65,24.67,94.46,52.01,98.76,75.65.23,1.27.34,2.53.39,3.8-.01.96-.03,1.93-.05,2.89-.07.92-.18,1.84-.34,2.77l.27.05c-.13,4.3-.33,8.59-.61,12.87l49.89,3.36c.38-5.6.62-11.21.76-16.83.11-1.9.13-3.81.1-5.71.1-10.07-.18-20.14-.85-30.1ZM158.45,199.32l-9.28-3.71-9.28,3.71c-31.54,12.61-58.12,26.17-79.06,40.32,17.54-67.97,53.69-124.05,88.33-165.3,34.64,41.25,70.79,97.34,88.33,165.3-20.93-14.15-47.51-27.72-79.06-40.32ZM490.15,129c4.55.58,9.07,1.45,13.55,2.6l-6.5,48.13c-8.96-2.6-17.63-3.9-26.02-3.9-12.72,0-23.88,2.96-33.5,8.89-9.61,5.93-17.09,14.13-22.44,24.61-5.35,10.48-8.02,22.66-8.02,36.53v103.41h-53.33v-216.8h46.39l1.95,39.46c7.51-13.88,17.67-24.64,30.46-32.3,12.79-7.66,27.5-11.49,44.12-11.49,4.34,0,8.78.29,13.33.87ZM691.45,283.14l31.65,32.74c-10.55,12-23.34,21.28-38.37,27.86-15.03,6.58-31.44,9.86-49.21,9.86-21.97,0-41.66-4.91-59.08-14.74-17.42-9.83-31.15-23.23-41.19-40.22-10.05-16.98-15.07-36.24-15.07-57.78s5.02-40.79,15.07-57.78c10.04-16.98,23.77-30.39,41.19-40.22,17.42-9.83,37.11-14.74,59.08-14.74,17.63,0,33.93,3.25,48.89,9.76s27.71,15.68,38.26,27.53l-31.22,33.17c-6.5-7.08-14.35-12.57-23.52-16.48-9.18-3.9-18.9-5.85-29.16-5.85-12.43,0-23.45,2.75-33.06,8.24-9.61,5.49-17.13,13.08-22.55,22.76-5.42,9.68-8.13,20.81-8.13,33.39s2.71,23.74,8.13,33.5,12.93,17.42,22.55,22.98c9.61,5.57,20.63,8.35,33.06,8.35,10.26,0,20.02-1.99,29.27-5.96,9.25-3.97,17.05-9.43,23.41-16.37ZM953.55,153.6c15.61,16.98,23.41,40.58,23.41,70.78v124.88h-53.33v-111.22c0-19.65-4.55-34.94-13.66-45.85-9.11-10.91-21.9-16.37-38.37-16.37s-29.63,5.53-39.02,16.58c-9.4,11.06-14.09,26.27-14.09,45.64v111.22h-53.33V24.07h53.33v136.15c15.9-21.39,39.24-32.09,70.02-32.09,27.75,0,49.43,8.49,65.04,25.47ZM1289.37,132.47h56.37l-69.81,216.8h-61.14l-39.46-144.39-39.46,144.39h-61.14l-69.59-216.8h56.37l43.14,158.7,47.04-158.7h47.48l46.83,158.91,43.36-158.91ZM1514.41,140.16c-14.89-8.02-32.52-12.03-52.9-12.03-13.88,0-28.08,1.95-42.6,5.85s-28.73,9.68-42.6,17.34l15.18,41.84c8.67-6.65,17.99-11.67,27.97-15.07,9.97-3.39,19.95-5.09,29.92-5.09,10.98,0,20.88,1.92,29.7,5.75,8.81,3.83,15.83,9.21,21.03,16.15s7.8,15.18,7.8,24.71v6.94c-8.67-4.19-18.1-7.44-28.29-9.76-10.19-2.31-20.34-3.47-30.46-3.47-16.62,0-31.4,3.04-44.33,9.11-12.94,6.07-23.13,14.42-30.57,25.04-7.45,10.62-11.17,22.95-11.17,36.96s3.43,25.15,10.3,35.55c6.86,10.41,16.29,18.61,28.29,24.61,12,6,25.65,9,40.97,9,14.45,0,27.6-2.71,39.46-8.13,11.85-5.42,21.75-13.04,29.7-22.87l3.04,26.67h46.39v-122.49c0-20.09-4.08-37.54-12.25-52.36-8.17-14.81-19.69-26.23-34.58-34.25ZM1507.69,264.28c-.29,9.11-3,17.16-8.13,24.17-5.13,7.01-11.71,12.47-19.73,16.37s-16.73,5.85-26.12,5.85c-7.66,0-14.56-1.37-20.7-4.12-6.14-2.74-10.95-6.54-14.42-11.38-3.47-4.84-5.2-10.22-5.2-16.15,0-9.68,4.26-17.52,12.79-23.52,8.53-6,19.44-9,32.74-9,8.67,0,17.27,1.34,25.8,4.01,8.53,2.68,16.19,6.47,22.98,11.38v2.38ZM1845.24,132.47l-134.63,325.2h-57.02l45.09-109.27-107.53-215.93h60.05l72.84,155.01,64.17-155.01h57.02Z"/>
</svg>