<?xml version="1.0" encoding="UTF-8"?>
<svg id="Layer_1" data-name="Layer 1" xmlns="http://www.w3.org/2000/svg" xmlns:xlink="http://www.w3.org/1999/xlink" viewBox="0 0 832.09 832.09">
  <defs>
    <style>
      .cls-1 {
        fill: #f2f2f2;
      }

      .cls-2 {
        fill: url(#linear-gradient);
      }
    </style>
    <linearGradient id="linear-gradient" x1="0" y1="447.86" x2="832.09" y2="447.86" gradientTransform="translate(0 863.91) scale(1 -1)" gradientUnits="userSpaceOnUse">
      <stop offset="0" stop-color="#6dcaee"/>
      <stop offset="1" stop-color="#00aeef"/>
    </linearGradient>
  </defs>
  <rect class="cls-2" width="832.09" height="832.09" rx="57" ry="57"/>
  <path class="cls-1" d="M630.51,617.94c.14-14.48-.26-28.95-1.23-43.28-9.59-141.36-74.24-279.94-186.95-400.75l-26.28-28.17-26.28,28.17c-112.72,120.81-177.36,259.39-186.95,400.75-.97,14.32-1.37,28.79-1.23,43.27-.05,2.74-.01,5.48.14,8.22.2,8.08.54,16.15,1.09,24.19l71.73-4.83c-.41-6.16-.7-12.33-.88-18.51l.39-.07c-.24-1.34-.39-2.67-.49-3.99-.03-1.38-.05-2.76-.07-4.14.06-1.82.22-3.63.56-5.46,6.18-33.99,57.67-73.31,142-108.77,84.33,35.47,135.82,74.78,142,108.77.33,1.83.49,3.64.56,5.46-.02,1.38-.04,2.77-.07,4.15-.1,1.32-.25,2.64-.49,3.98l.39.07c-.18,6.18-.47,12.35-.88,18.51l71.73,4.83c.54-8.05.89-16.12,1.09-24.2.15-2.74.19-5.47.14-8.21ZM429.39,432.34l-13.34-5.33-13.34,5.33c-45.36,18.13-83.57,37.63-113.67,57.98,25.22-97.73,77.2-178.37,127.01-237.68,49.81,59.31,101.79,139.96,127.01,237.68-30.1-20.35-68.32-39.85-113.67-57.98Z"/>
</svg>